HIERARCHY
ROOT hip
{
  OFFSET -7.61452 84.4257 37.5314
  CHANNELS 6 Xposition Yposition Zposition Zrotation Xrotation Yrotation
  JOINT abdomen
  {
    OFFSET 0 20.6881 -0.73152
    CHANNELS 3 Zrotation Xrotation Yrotation
    JOINT chest
    {
      OFFSET 0 11.7043 -0.48768
      CHANNELS 3 Zrotation Xrotation Yrotation
      JOINT neck
      {
        OFFSET 0 22.1894 -2.19456
        CHANNELS 3 Zrotation Xrotation Yrotation
        JOINT head
        {
          OFFSET -0.24384 7.07133 1.2192
          CHANNELS 3 Zrotation Xrotation Yrotation
          JOINT leftEye
          {
            OFFSET 4.14528 8.04674 8.04672
            CHANNELS 3 Zrotation Xrotation Yrotation
            End Site
            {
              OFFSET 1 0 0
            }
          }
          JOINT rightEye
          {
            OFFSET -3.6576 8.04674 8.04672
            CHANNELS 3 Zrotation Xrotation Yrotation
            End Site
            {
              OFFSET 1 0 0
            }
          }
        }
      }
      JOINT rCollar
      {
        OFFSET -2.68224 19.2634 -4.8768
        CHANNELS 3 Zrotation Xrotation Yrotation
        JOINT rShldr
        {
          OFFSET -8.77824 -1.95073 1.46304
          CHANNELS 3 Zrotation Xrotation Yrotation
          JOINT rForeArm
          {
            OFFSET -28.1742 -1.7115 0.48768
            CHANNELS 3 Zrotation Xrotation Yrotation
            JOINT rHand
            {
              OFFSET -22.5879 0.773209 7.07136
              CHANNELS 3 Zrotation Xrotation Yrotation
              JOINT rThumb1
              {
                OFFSET -1.2192 -0.487915 3.41376
                CHANNELS 3 Zrotation Xrotation Yrotation
                JOINT rThumb2
                {
                  OFFSET -3.37035 -0.52449 3.41376
                  CHANNELS 3 Zrotation Xrotation Yrotation
                  End Site
                  {
                    OFFSET -1.78271 -1.18214 1.43049
                  }
                }
              }
              JOINT rIndex1
              {
                OFFSET -7.75947 0.938293 5.60832
                CHANNELS 3 Zrotation Xrotation Yrotation
                JOINT rIndex2
                {
                  OFFSET -2.54057 -0.884171 1.56538
                  CHANNELS 3 Zrotation Xrotation Yrotation
                  End Site
                  {
                    OFFSET -1.62519 -0.234802 1.16502
                  }
                }
              }
              JOINT rMid1
              {
                OFFSET -8.24714 1.18213 3.41376
                CHANNELS 3 Zrotation Xrotation Yrotation
                JOINT rMid2
                {
                  OFFSET -3.10165 -0.590103 1.0647
                  CHANNELS 3 Zrotation Xrotation Yrotation
                  End Site
                  {
                    OFFSET -2.48547 -0.328903 0.83742
                  }
                }
              }
              JOINT rRing1
              {
                OFFSET -8.82822 0.546677 1.51678
                CHANNELS 3 Zrotation Xrotation Yrotation
                JOINT rRing2
                {
                  OFFSET -2.60934 -0.819778 -0.0198488
                  CHANNELS 3 Zrotation Xrotation Yrotation
                  End Site
                  {
                    OFFSET -2.33842 -0.294052 0.168128
                  }
                }
              }
              JOINT rPinky1
              {
                OFFSET -8.27202 -0.0477905 -0.4584
                CHANNELS 3 Zrotation Xrotation Yrotation
                JOINT rPinky2
                {
                  OFFSET -1.82734 -0.647385 -0.700984
                  CHANNELS 3 Zrotation Xrotation Yrotation
                  End Site
                  {
                    OFFSET -1.69225 -0.51767 -0.607171
                  }
                }
              }
            }
          }
        }
      }
      JOINT lCollar
      {
        OFFSET 2.68224 19.2634 -4.8768
        CHANNELS 3 Zrotation Xrotation Yrotation
        JOINT lShldr
        {
          OFFSET 8.77824 -1.95073 1.46304
          CHANNELS 3 Zrotation Xrotation Yrotation
          JOINT lForeArm
          {
            OFFSET 28.1742 -1.7115 0.48768
            CHANNELS 3 Zrotation Xrotation Yrotation
            JOINT lHand
            {
              OFFSET 22.5879 0.773209 7.07136
              CHANNELS 3 Zrotation Xrotation Yrotation
              JOINT lThumb1
              {
                OFFSET 1.2192 -0.487915 3.41376
                CHANNELS 3 Zrotation Xrotation Yrotation
                JOINT lThumb2
                {
                  OFFSET 3.37035 -0.52449 3.41376
                  CHANNELS 3 Zrotation Xrotation Yrotation
                  End Site
                  {
                    OFFSET 1.78271 -1.18214 1.43049
                  }
                }
              }
              JOINT lIndex1
              {
                OFFSET 7.75947 0.938293 5.60832
                CHANNELS 3 Zrotation Xrotation Yrotation
                JOINT lIndex2
                {
                  OFFSET 2.54057 -0.884171 1.56538
                  CHANNELS 3 Zrotation Xrotation Yrotation
                  End Site
                  {
                    OFFSET 1.62519 -0.234802 1.16502
                  }
                }
              }
              JOINT lMid1
              {
                OFFSET 8.24714 1.18213 3.41376
                CHANNELS 3 Zrotation Xrotation Yrotation
                JOINT lMid2
                {
                  OFFSET 3.10165 -0.590103 1.0647
                  CHANNELS 3 Zrotation Xrotation Yrotation
                  End Site
                  {
                    OFFSET 2.48547 -0.328903 0.83742
                  }
                }
              }
              JOINT lRing1
              {
                OFFSET 8.82822 0.546677 1.51678
                CHANNELS 3 Zrotation Xrotation Yrotation
                JOINT lRing2
                {
                  OFFSET 2.60934 -0.819778 -0.0198488
                  CHANNELS 3 Zrotation Xrotation Yrotation
                  End Site
                  {
                    OFFSET 2.33842 -0.294052 0.168128
                  }
                }
              }
              JOINT lPinky1
              {
                OFFSET 8.27202 -0.0477905 -0.4584
                CHANNELS 3 Zrotation Xrotation Yrotation
                JOINT lPinky2
                {
                  OFFSET 1.82734 -0.647385 -0.700984
                  CHANNELS 3 Zrotation Xrotation Yrotation
                  End Site
                  {
                    OFFSET 1.69225 -0.51767 -0.607171
                  }
                }
              }
            }
          }
        }
      }
    }
  }
  JOINT rButtock
  {
    OFFSET -8.77824 4.35084 1.2192
    CHANNELS 3 Zrotation Xrotation Yrotation
    JOINT rThigh
    {
      OFFSET 0 -1.70687 -2.19456
      CHANNELS 3 Zrotation Xrotation Yrotation
      JOINT rShin
      {
        OFFSET 0 -36.8199 0.73152
        CHANNELS 3 Zrotation Xrotation Yrotation
        JOINT rFoot
        {
          OFFSET 0.73152 -45.1104 -5.12064
          CHANNELS 3 Zrotation Xrotation Yrotation
          End Site
          {
            OFFSET -1.1221 -3.69964 12.103
          }
        }
      }
    }
  }
  JOINT lButtock
  {
    OFFSET 8.77824 4.35084 1.2192
    CHANNELS 3 Zrotation Xrotation Yrotation
    JOINT lThigh
    {
      OFFSET 0 -1.70687 -2.19456
      CHANNELS 3 Zrotation Xrotation Yrotation
      JOINT lShin
      {
        OFFSET 0 -36.8199 0.73152
        CHANNELS 3 Zrotation Xrotation Yrotation
        JOINT lFoot
        {
          OFFSET -0.73152 -45.1104 -5.12064
          CHANNELS 3 Zrotation Xrotation Yrotation
          End Site
          {
            OFFSET 1.1221 -3.69964 12.103
          }
        }
      }
    }
  }
}
MOTION
Frames:	5
Frame Time:	0.00833333
-6.90152 84.5745 37.8735 -3.46503 -0.387403 2.45421 3.05343 5.32889 4.0258 -1.30572 -1.37863 1.03357 0.456771 8.18095 3.72601 -21.9868 14.7538 10.4786 -0 0 0 -0 0 0 2.09909e-013 -3.81959e-014 -8.31114e-014 51.0599 55.9642 27.2295 -26.2772 -45.7165 94.9475 -0.147435 -10.9167 -1.55308 2.69315e-010 -3.32713e-010 5.21272e-010 4.66286e-010 -5.70395e-010 8.99831e-010 2.69319e-010 -3.3272e-010 5.21241e-010 7.73091 5.47488 0.417314 2.69313e-010 -3.32711e-010 5.21266e-010 2.90554 0.965183 0.102902 2.69323e-010 -3.32711e-010 5.2127e-010 10.2786 0.731801 0.0259123 2.69312e-010 -3.32708e-010 5.21272e-010 2.22167 -0.733487 -0.20892 2.09868e-013 -3.8194e-014 -8.32081e-014 -68.3808 47.8386 -26.5542 28.3744 -37.4125 -79.4169 29.8426 -76.8882 37.1118 1.05873e-010 -1.861e-009 -2.03377e-010 1.89868e-010 -3.0601e-009 -3.3934e-010 1.05869e-010 -1.86101e-009 -2.03362e-010 -7.73091 5.47488 -0.417314 1.05875e-010 -1.861e-009 -2.03379e-010 -2.90554 0.965183 -0.102902 1.05871e-010 -1.86099e-009 -2.03377e-010 -10.2786 0.731801 -0.0259123 1.05874e-010 -1.861e-009 -2.03392e-010 -2.22167 -0.733487 0.20892 -2.03217e-016 0 -3.88251e-019 -22.0639 -2.0048 -0.00084615 0.00731771 -2.08092 0.0700732 -0.306974 4.05689 0.111091 2.03217e-016 0 3.88251e-019 7.95198 0.807302 -6.41306 -0.068863 7.9073 -0.361119 0.31899 -11.2216 18.9336 
-6.91397 84.5636 37.8895 -3.43314 -0.410243 2.50008 2.98614 5.32527 3.98512 -1.27709 -1.37625 1.02019 0.449126 8.17498 3.72095 -21.9571 14.7763 10.4697 -0 0 0 -0 0 0 1.21685e-013 -1.32944e-014 -6.67916e-014 51.2254 55.8119 27.0609 -26.2965 -45.6762 94.8627 -0.12868 -10.2329 -1.45351 -1.62083e-011 -2.04856e-010 1.98246e-010 -2.69748e-011 -3.48733e-010 3.40585e-010 -1.62063e-011 -2.04855e-010 1.98223e-010 7.73091 5.47488 0.417314 -1.62108e-011 -2.04852e-010 1.98242e-010 2.90554 0.965183 0.102902 -1.61993e-011 -2.04852e-010 1.98245e-010 10.2786 0.731801 0.0259123 -1.62107e-011 -2.0485e-010 1.98251e-010 2.22167 -0.733487 -0.20892 1.21623e-013 -1.32937e-014 -6.69687e-014 -68.3426 47.8293 -26.5872 28.3759 -37.4119 -79.4063 29.9947 -76.9336 37.268 -1.24706e-010 -1.19482e-012 5.35683e-012 -2.13558e-010 -8.10676e-011 -2.57183e-013 -1.24708e-010 -1.20337e-012 5.36858e-012 -7.73091 5.47488 -0.417314 -1.24704e-010 -1.18872e-012 5.35565e-012 -2.90554 0.965183 -0.102902 -1.24708e-010 -1.18272e-012 5.35801e-012 -10.2786 0.731801 -0.0259123 -1.24704e-010 -1.19349e-012 5.34334e-012 -2.22167 -0.733487 0.20892 -2.03217e-016 0 -3.88251e-019 -22.0717 -2.00605 -0.000745294 0.00764228 -2.08097 0.0729418 -0.309932 4.05643 0.111521 2.03217e-016 0 3.88251e-019 7.93968 0.892654 -6.41458 -0.0692916 7.79768 -0.358354 0.323764 -11.1858 18.8904 
-6.92247 84.5533 37.8977 -3.40164 -0.425539 2.5326 2.92511 5.32152 3.95725 -1.256 -1.37527 1.01051 0.433867 8.16026 3.71463 -21.9178 14.8072 10.4598 -0 0 0 -0 0 0 2.41197e-014 1.43778e-014 -4.96271e-014 51.3587 55.6774 26.9121 -26.3134 -45.6404 94.788 -0.113304 -9.59187 -1.36075 -3.13183e-010 -7.67365e-011 -1.36688e-010 -5.4007e-010 -1.26818e-010 -2.39226e-010 -3.13183e-010 -7.67281e-011 -1.36701e-010 7.73091 5.47488 0.417314 -3.13186e-010 -7.67304e-011 -1.3669e-010 2.90554 0.965183 0.102902 -3.13173e-010 -7.67308e-011 -1.36687e-010 10.2786 0.731801 0.0259123 -3.13185e-010 -7.67313e-011 -1.36677e-010 2.22167 -0.733487 -0.20892 2.4039e-014 1.43771e-014 -4.98829e-014 -68.3006 47.8223 -26.6274 28.3776 -37.4099 -79.3933 30.1486 -76.9791 37.426 -3.66315e-010 1.93215e-009 2.22492e-010 -6.36191e-010 3.01575e-009 3.52467e-010 -3.66316e-010 1.93215e-009 2.22501e-010 -7.73091 5.47488 -0.417314 -3.66313e-010 1.93216e-009 2.22492e-010 -2.90554 0.965183 -0.102902 -3.66318e-010 1.93216e-009 2.22495e-010 -10.2786 0.731801 -0.0259123 -3.66312e-010 1.93215e-009 2.22481e-010 -2.22167 -0.733487 0.20892 -2.03217e-016 0 -3.88251e-019 -22.0793 -2.00716 -0.000643329 0.00793679 -2.08101 0.0755448 -0.312723 4.05597 0.111927 2.03217e-016 0 3.88251e-019 7.92075 0.968869 -6.42903 -0.0697297 7.69207 -0.355615 0.332229 -11.1592 18.8754 
-6.93498 84.5445 37.9035 -3.38329 -0.435987 2.5587 2.88479 5.32224 3.94074 -1.24139 -1.37288 1.00496 0.424863 8.14553 3.70897 -21.8886 14.8344 10.4513 -0 0 0 -0 0 0 -4.28978e-014 3.33966e-014 -3.96078e-014 51.4034 55.6415 26.833 -26.3187 -45.6293 94.7647 -0.105812 -9.23741 -1.30971 -4.92181e-010 -2.49006e-011 -3.22006e-010 -8.49557e-010 -3.75814e-011 -5.59964e-010 -4.92183e-010 -2.48898e-011 -3.22012e-010 7.73091 5.47488 0.417314 -4.92185e-010 -2.48933e-011 -3.22006e-010 2.90554 0.965183 0.102902 -4.92172e-010 -2.48938e-011 -3.22003e-010 10.2786 0.731801 0.0259123 -4.92183e-010 -2.48954e-011 -3.2199e-010 2.22167 -0.733487 -0.20892 -4.298e-014 3.33947e-014 -3.9906e-014 -68.2642 47.8226 -26.6673 28.3786 -37.4073 -79.3836 30.2659 -77.0135 37.5463 -5.22387e-010 3.07532e-009 3.5237e-010 -9.08807e-010 4.84352e-009 5.62974e-010 -5.22387e-010 3.07533e-009 3.52377e-010 -7.73091 5.47488 -0.417314 -5.22385e-010 3.07535e-009 3.5237e-010 -2.90554 0.965183 -0.102902 -5.2239e-010 3.07535e-009 3.52374e-010 -10.2786 0.731801 -0.0259123 -5.22383e-010 3.07533e-009 3.52361e-010 -2.22167 -0.733487 0.20892 -2.03217e-016 0 -3.88251e-019 -22.0826 -2.00768 -0.000599946 0.0080714 -2.08103 0.0767346 -0.313935 4.0558 0.112103 2.03217e-016 0 3.88251e-019 7.91013 1.00697 -6.44794 -0.0699441 7.64606 -0.354396 0.337865 -11.1532 18.871 
-6.94931 84.5371 37.9096 -3.38509 -0.440281 2.57537 2.87488 5.32955 3.94243 -1.23686 -1.36709 1.00598 0.427991 8.12854 3.70393 -21.875 14.8607 10.4451 -0 0 0 -0 0 0 -7.10295e-014 4.13736e-014 -4.34003e-014 51.3243 55.7563 26.8523 -26.3068 -45.6546 94.8174 -0.108094 -9.33251 -1.32345 -5.11652e-010 -9.43564e-011 -2.89783e-010 -8.83836e-010 -1.59402e-010 -5.04014e-010 -5.11655e-010 -9.43516e-011 -2.89786e-010 7.73091 5.47488 0.417314 -5.11656e-010 -9.4349e-011 -2.89781e-010 2.90554 0.965183 0.102902 -5.11644e-010 -9.43495e-011 -2.89778e-010 10.2786 0.731801 0.0259123 -5.11653e-010 -9.43511e-011 -2.89765e-010 2.22167 -0.733487 -0.20892 -7.10813e-014 4.13705e-014 -4.36833e-014 -68.2289 47.8337 -26.7118 28.3787 -37.4034 -79.3778 30.3448 -77.0365 37.6273 -5.74444e-010 3.15214e-009 3.65783e-010 -9.98624e-010 4.95474e-009 5.8314e-010 -5.74444e-010 3.15215e-009 3.65788e-010 -7.73091 5.47488 -0.417314 -5.74442e-010 3.15216e-009 3.65782e-010 -2.90554 0.965183 -0.102902 -5.74447e-010 3.15216e-009 3.65786e-010 -10.2786 0.731801 -0.0259123 -5.7444e-010 3.15215e-009 3.65776e-010 -2.22167 -0.733487 0.20892 -2.03217e-016 0 -3.88251e-019 -22.0788 -2.00723 -0.000653065 0.00794336 -2.08101 0.0756029 -0.312511 4.05612 0.111898 2.03217e-016 0 3.88251e-019 7.91243 0.984345 -6.47454 -0.0698193 7.69867 -0.355646 0.339751 -11.1836 18.8828 
